<svg xmlns="http://www.w3.org/2000/svg" viewBox="0 0 23.17 23.7"><defs><style>.cls-1{fill:#13a69a;}</style></defs><title>Explore icon</title><g id="Layer_2" data-name="Layer 2"><g id="Layer_1-2" data-name="Layer 1"><path class="cls-1" d="M5.17,15.17,1.71,18.64a1,1,0,0,1-1.42,0h0a1,1,0,0,1,0-1.42l3.47-3.46a6,6,0,0,1-.93-5A5.86,5.86,0,0,1,5.23,5.3a6,6,0,1,1-.06,9.87Zm3.63-.7a4.21,4.21,0,1,0-4.33-4.08A4.21,4.21,0,0,0,8.8,14.47Z"/><path class="cls-1" d="M21.49,1.71H4.55c0,.61,0,1.2,0,1.8a.4.4,0,0,1-.19.36c-.51.4-1,.81-1.5,1.22,0,0,0-.1,0-.17V1.86A1.77,1.77,0,0,1,4.73,0H21.31a1.77,1.77,0,0,1,1.86,1.86V18.61H21.49Z"/><path class="cls-1" d="M4.55,18.21V22H18.08V23.7H4.78a1.78,1.78,0,0,1-1.92-1.91c0-.56,0-1.13,0-1.69A.47.47,0,0,1,3,19.81C3.46,19.29,4,18.78,4.55,18.21Z"/><path class="cls-1" d="M10.59,17.76l.86-.3a7.8,7.8,0,0,0,2.14-1.25.47.47,0,0,1,.27-.12h5.06v1.68Z"/><path class="cls-1" d="M23.09,19.47,19,23.61s0-.12,0-.19V21.31a1.77,1.77,0,0,1,1.83-1.84h2.32Z"/><path class="cls-1" d="M18.93,6V7.62h-2.8a.3.3,0,0,1-.24-.12c-.26-.51-.5-1-.75-1.54Z"/><path class="cls-1" d="M15.25,14.37,16,12.71h2.88v1.66Z"/><path class="cls-1" d="M16.38,9.32h2.55V11H16.38Z"/></g></g></svg>